<svg width="206" height="133" viewBox="0 0 206 133" fill="none" xmlns="http://www.w3.org/2000/svg">
<path d="M20.44 58V30.56H24.24V42.32H39.16V30.56H43V58H39.16V45.64H24.24V58H20.44ZM52.0531 58L45.6931 36.96H49.3331L52.5331 48.52C52.6931 49.08 52.8398 49.6933 52.9731 50.36C53.1331 51 53.2798 51.6 53.4131 52.16C53.5731 52.6933 53.6798 53.1067 53.7331 53.4H53.9731C54.0798 52.8933 54.1998 52.32 54.3331 51.68C54.4931 51.04 54.6265 50.4267 54.7331 49.84C54.8665 49.2533 54.9731 48.8 55.0531 48.48L57.9331 36.96H61.7331L64.6531 48.48C64.7598 48.9333 64.8798 49.4667 65.0131 50.08C65.1465 50.6667 65.2798 51.2533 65.4131 51.84C65.5731 52.4267 65.6798 52.9467 65.7331 53.4H65.9731C66.0798 52.9733 66.1998 52.48 66.3331 51.92C66.4665 51.3333 66.6131 50.7467 66.7731 50.16C66.9331 49.5467 67.0798 49.0133 67.2131 48.56L70.3731 36.96H73.7331L67.4131 58H63.8131L61.0931 47.12C60.9865 46.6133 60.8531 46.0267 60.6931 45.36C60.5331 44.6667 60.3731 43.9733 60.2131 43.28C60.0798 42.56 59.9598 41.9333 59.8531 41.4H59.6131C59.5598 41.8 59.4665 42.3067 59.3331 42.92C59.2265 43.5333 59.0931 44.2133 58.9331 44.96C58.7731 45.68 58.5865 46.4 58.3731 47.12L55.6531 58H52.0531ZM80.6087 58.48C79.8354 58.48 79.0621 58.3867 78.2887 58.2C77.5154 58.0133 76.7954 57.7067 76.1287 57.28C75.4621 56.8533 74.9287 56.2667 74.5287 55.52C74.1287 54.7467 73.9287 53.7867 73.9287 52.64C73.9287 51.2 74.2754 50.0133 74.9687 49.08C75.6621 48.1467 76.6221 47.4267 77.8487 46.92C79.1021 46.3867 80.5821 46.0267 82.2887 45.84C83.9954 45.6267 85.8487 45.52 87.8487 45.52V43.12C87.8487 42.3467 87.7154 41.68 87.4487 41.12C87.1821 40.56 86.7021 40.1333 86.0087 39.84C85.3421 39.52 84.3821 39.36 83.1287 39.36C81.9287 39.36 80.9687 39.52 80.2487 39.84C79.5554 40.1333 79.0621 40.52 78.7687 41C78.5021 41.48 78.3687 42.0133 78.3687 42.6V43.2H74.9687C74.9421 43.0667 74.9287 42.9333 74.9287 42.8C74.9287 42.6667 74.9287 42.5067 74.9287 42.32C74.9287 41.04 75.2754 39.9733 75.9687 39.12C76.6887 38.24 77.6887 37.5867 78.9687 37.16C80.2487 36.7067 81.7154 36.48 83.3687 36.48C85.1287 36.48 86.5954 36.7333 87.7687 37.24C88.9687 37.7467 89.8621 38.4667 90.4487 39.4C91.0621 40.3333 91.3687 41.4533 91.3687 42.76V54.16C91.3687 54.6667 91.4887 55.0267 91.7287 55.24C91.9687 55.4267 92.2621 55.52 92.6088 55.52H94.1687V57.84C93.7954 58 93.3821 58.1333 92.9287 58.24C92.4754 58.3733 91.9554 58.44 91.3687 58.44C90.6754 58.44 90.1021 58.2933 89.6487 58C89.1954 57.7333 88.8487 57.36 88.6087 56.88C88.3687 56.3733 88.2087 55.8133 88.1287 55.2H87.8487C87.3687 55.8667 86.7554 56.4533 86.0087 56.96C85.2887 57.44 84.4754 57.8133 83.5687 58.08C82.6621 58.3467 81.6754 58.48 80.6087 58.48ZM81.4887 55.52C82.3421 55.52 83.1421 55.3867 83.8887 55.12C84.6621 54.8533 85.3421 54.48 85.9287 54C86.5154 53.4933 86.9821 52.8933 87.3287 52.2C87.6754 51.5067 87.8487 50.7467 87.8487 49.92V48.16C85.6887 48.16 83.8487 48.28 82.3287 48.52C80.8087 48.76 79.6354 49.1867 78.8087 49.8C78.0087 50.4133 77.6087 51.28 77.6087 52.4C77.6087 53.12 77.7687 53.7067 78.0887 54.16C78.4087 54.6133 78.8621 54.96 79.4487 55.2C80.0354 55.4133 80.7154 55.52 81.4887 55.52ZM95.9256 33V29.08H99.4456V33H95.9256ZM95.0056 65.28C94.7123 65.28 94.3923 65.2533 94.0456 65.2C93.699 65.1733 93.3656 65.12 93.0456 65.04C92.7256 64.9867 92.459 64.92 92.2456 64.84V62.4H94.0456C94.659 62.4 95.1256 62.2267 95.4456 61.88C95.7656 61.56 95.9256 61.0933 95.9256 60.48V36.96H99.4456V60.56C99.4456 61.36 99.3123 62.12 99.0456 62.84C98.779 63.56 98.3256 64.1467 97.6856 64.6C97.0723 65.0533 96.179 65.28 95.0056 65.28ZM112.032 58.48C109.952 58.48 108.192 58.0933 106.752 57.32C105.339 56.52 104.259 55.3067 103.512 53.68C102.792 52.0533 102.432 49.9867 102.432 47.48C102.432 44.9467 102.792 42.88 103.512 41.28C104.259 39.6533 105.352 38.4533 106.792 37.68C108.232 36.88 110.032 36.48 112.192 36.48C114.165 36.48 115.819 36.8667 117.152 37.64C118.485 38.3867 119.485 39.52 120.152 41.04C120.845 42.5333 121.192 44.4133 121.192 46.68V48.36H106.072C106.125 50.04 106.365 51.4267 106.792 52.52C107.245 53.5867 107.912 54.3733 108.792 54.88C109.672 55.36 110.779 55.6 112.112 55.6C113.019 55.6 113.805 55.4933 114.472 55.28C115.165 55.04 115.739 54.7067 116.192 54.28C116.672 53.8533 117.032 53.3467 117.272 52.76C117.512 52.1733 117.645 51.5333 117.672 50.84H121.112C121.085 51.96 120.872 53 120.472 53.96C120.072 54.8933 119.485 55.6933 118.712 56.36C117.939 57.0267 116.992 57.5467 115.872 57.92C114.752 58.2933 113.472 58.48 112.032 58.48ZM106.152 45.72H117.552C117.552 44.5467 117.419 43.56 117.152 42.76C116.885 41.96 116.499 41.3067 115.992 40.8C115.512 40.2933 114.939 39.9333 114.272 39.72C113.632 39.48 112.899 39.36 112.072 39.36C110.845 39.36 109.805 39.5867 108.952 40.04C108.099 40.4933 107.445 41.1867 106.992 42.12C106.539 43.0533 106.259 44.2533 106.152 45.72ZM132.986 58.48C130.853 58.48 129.053 58.0933 127.586 57.32C126.146 56.52 125.039 55.3067 124.266 53.68C123.519 52.0533 123.146 49.9867 123.146 47.48C123.146 44.9467 123.519 42.88 124.266 41.28C125.039 39.6533 126.146 38.4533 127.586 37.68C129.053 36.88 130.853 36.48 132.986 36.48C135.119 36.48 136.906 36.88 138.346 37.68C139.813 38.4533 140.919 39.6533 141.666 41.28C142.413 42.88 142.786 44.9467 142.786 47.48C142.786 49.9867 142.413 52.0533 141.666 53.68C140.919 55.3067 139.813 56.52 138.346 57.32C136.906 58.0933 135.119 58.48 132.986 58.48ZM132.986 55.52C134.346 55.52 135.479 55.2533 136.386 54.72C137.293 54.1867 137.973 53.36 138.426 52.24C138.906 51.0933 139.146 49.6533 139.146 47.92V47.04C139.146 45.28 138.906 43.84 138.426 42.72C137.973 41.6 137.293 40.7733 136.386 40.24C135.479 39.7067 134.346 39.44 132.986 39.44C131.626 39.44 130.479 39.7067 129.546 40.24C128.639 40.7733 127.959 41.6 127.506 42.72C127.053 43.84 126.826 45.28 126.826 47.04V47.92C126.826 49.6533 127.053 51.0933 127.506 52.24C127.959 53.36 128.639 54.1867 129.546 54.72C130.479 55.2533 131.626 55.52 132.986 55.52ZM145.958 58V36.96H148.798L149.118 40.12H149.398C149.958 39.2667 150.585 38.5733 151.278 38.04C151.998 37.5067 152.785 37.12 153.638 36.88C154.518 36.6133 155.452 36.48 156.438 36.48C157.772 36.48 158.932 36.7067 159.918 37.16C160.932 37.6133 161.718 38.3467 162.278 39.36C162.865 40.3733 163.158 41.7467 163.158 43.48V58H159.638V43.96C159.638 43.08 159.518 42.36 159.278 41.8C159.065 41.24 158.758 40.8 158.358 40.48C157.985 40.16 157.518 39.9333 156.958 39.8C156.425 39.6667 155.825 39.6 155.158 39.6C154.172 39.6 153.238 39.84 152.358 40.32C151.478 40.8 150.772 41.4933 150.238 42.4C149.732 43.3067 149.478 44.3867 149.478 45.64V58H145.958ZM170.858 65.28C169.844 65.28 168.911 65.0667 168.058 64.64C167.204 64.24 166.524 63.6533 166.018 62.88C165.511 62.1067 165.258 61.1867 165.258 60.12C165.258 58.9467 165.578 57.9733 166.218 57.2C166.884 56.4267 167.671 55.8533 168.578 55.48C167.911 55.16 167.391 54.72 167.018 54.16C166.644 53.5733 166.458 52.9333 166.458 52.24C166.458 51.3067 166.791 50.52 167.458 49.88C168.151 49.24 168.991 48.8133 169.978 48.6C169.071 48.0133 168.351 47.2667 167.818 46.36C167.311 45.4267 167.058 44.4 167.058 43.28C167.058 41.9467 167.364 40.7733 167.978 39.76C168.618 38.7467 169.578 37.9467 170.858 37.36C172.164 36.7733 173.751 36.48 175.618 36.48C176.471 36.48 177.271 36.5467 178.018 36.68C178.764 36.7867 179.431 36.9733 180.018 37.24C180.951 36.8133 181.644 36.2667 182.098 35.6C182.578 34.9333 182.871 34.2533 182.978 33.56H186.458C186.458 34.36 186.271 35.12 185.898 35.84C185.551 36.5333 185.071 37.12 184.458 37.6C183.844 38.0533 183.098 38.36 182.218 38.52C182.884 39.16 183.378 39.88 183.698 40.68C184.044 41.48 184.218 42.3467 184.218 43.28C184.218 44.6133 183.898 45.8 183.258 46.84C182.644 47.8533 181.711 48.6533 180.458 49.24C179.204 49.8267 177.631 50.12 175.738 50.12H172.458C171.738 50.12 171.151 50.2667 170.698 50.56C170.244 50.8267 170.018 51.2667 170.018 51.88C170.018 52.4133 170.244 52.8533 170.698 53.2C171.151 53.52 171.738 53.68 172.458 53.68H181.018C182.564 53.68 183.831 54.2 184.818 55.24C185.804 56.2533 186.298 57.56 186.298 59.16C186.298 60.3067 186.004 61.3333 185.418 62.24C184.858 63.1733 184.058 63.9067 183.018 64.44C182.004 65 180.818 65.28 179.458 65.28H170.858ZM171.858 62.6H179.418C180.031 62.6 180.591 62.4667 181.098 62.2C181.604 61.96 182.004 61.6133 182.298 61.16C182.591 60.7067 182.738 60.2133 182.738 59.68C182.738 58.7733 182.471 58.0533 181.938 57.52C181.404 56.9867 180.738 56.72 179.938 56.72H171.858C171.004 56.72 170.284 57.0133 169.698 57.6C169.111 58.16 168.818 58.8533 168.818 59.68C168.818 60.56 169.111 61.2667 169.698 61.8C170.284 62.3333 171.004 62.6 171.858 62.6ZM175.658 47.48C177.364 47.48 178.631 47.1067 179.458 46.36C180.284 45.6133 180.698 44.5867 180.698 43.28C180.698 42 180.284 40.9867 179.458 40.24C178.631 39.4933 177.364 39.12 175.658 39.12C173.951 39.12 172.671 39.4933 171.818 40.24C170.991 40.9867 170.578 42 170.578 43.28C170.578 44.1067 170.764 44.84 171.138 45.48C171.511 46.12 172.071 46.6133 172.818 46.96C173.564 47.3067 174.511 47.48 175.658 47.48ZM20.44 102V74.56H24.24V98.68H37.88V102H20.44ZM48.4053 102.48C46.3253 102.48 44.5653 102.093 43.1253 101.32C41.712 100.52 40.632 99.3067 39.8853 97.68C39.1653 96.0533 38.8053 93.9867 38.8053 91.48C38.8053 88.9467 39.1653 86.88 39.8853 85.28C40.632 83.6533 41.7253 82.4533 43.1653 81.68C44.6053 80.88 46.4053 80.48 48.5653 80.48C50.5386 80.48 52.192 80.8667 53.5253 81.64C54.8586 82.3867 55.8586 83.52 56.5253 85.04C57.2186 86.5333 57.5653 88.4133 57.5653 90.68V92.36H42.4453C42.4986 94.04 42.7386 95.4267 43.1653 96.52C43.6186 97.5867 44.2853 98.3733 45.1653 98.88C46.0453 99.36 47.152 99.6 48.4853 99.6C49.392 99.6 50.1786 99.4933 50.8453 99.28C51.5386 99.04 52.112 98.7067 52.5653 98.28C53.0453 97.8533 53.4053 97.3467 53.6453 96.76C53.8853 96.1733 54.0186 95.5333 54.0453 94.84H57.4853C57.4586 95.96 57.2453 97 56.8453 97.96C56.4453 98.8933 55.8586 99.6933 55.0853 100.36C54.312 101.027 53.3653 101.547 52.2453 101.92C51.1253 102.293 49.8453 102.48 48.4053 102.48ZM42.5253 89.72H53.9253C53.9253 88.5467 53.792 87.56 53.5253 86.76C53.2586 85.96 52.872 85.3067 52.3653 84.8C51.8853 84.2933 51.312 83.9333 50.6453 83.72C50.0053 83.48 49.272 83.36 48.4453 83.36C47.2186 83.36 46.1786 83.5867 45.3253 84.04C44.472 84.4933 43.8186 85.1867 43.3653 86.12C42.912 87.0533 42.632 88.2533 42.5253 89.72ZM69.1194 102.48C67.0394 102.48 65.2794 102.093 63.8394 101.32C62.426 100.52 61.346 99.3067 60.5994 97.68C59.8794 96.0533 59.5194 93.9867 59.5194 91.48C59.5194 88.9467 59.8794 86.88 60.5994 85.28C61.346 83.6533 62.4394 82.4533 63.8794 81.68C65.3194 80.88 67.1194 80.48 69.2794 80.48C71.2527 80.48 72.906 80.8667 74.2394 81.64C75.5727 82.3867 76.5727 83.52 77.2394 85.04C77.9327 86.5333 78.2794 88.4133 78.2794 90.68V92.36H63.1594C63.2127 94.04 63.4527 95.4267 63.8794 96.52C64.3327 97.5867 64.9994 98.3733 65.8794 98.88C66.7594 99.36 67.866 99.6 69.1994 99.6C70.106 99.6 70.8927 99.4933 71.5594 99.28C72.2527 99.04 72.826 98.7067 73.2794 98.28C73.7594 97.8533 74.1194 97.3467 74.3594 96.76C74.5994 96.1733 74.7327 95.5333 74.7594 94.84H78.1994C78.1727 95.96 77.9594 97 77.5594 97.96C77.1594 98.8933 76.5727 99.6933 75.7994 100.36C75.026 101.027 74.0794 101.547 72.9594 101.92C71.8394 102.293 70.5594 102.48 69.1194 102.48ZM63.2394 89.72H74.6394C74.6394 88.5467 74.506 87.56 74.2394 86.76C73.9727 85.96 73.586 85.3067 73.0794 84.8C72.5994 84.2933 72.026 83.9333 71.3594 83.72C70.7194 83.48 69.986 83.36 69.1594 83.36C67.9327 83.36 66.8927 83.5867 66.0394 84.04C65.186 84.4933 64.5327 85.1867 64.0794 86.12C63.626 87.0533 63.346 88.2533 63.2394 89.72Z" fill="white"/>
</svg>
